<svg width="290" height="93" viewBox="0 0 290 93" fill="none" xmlns="http://www.w3.org/2000/svg">
<path d="M114.905 22.1752H111.351V7.14962L105.529 17.2975H102.305L96.4822 7.14962V22.1752H92.9282V0.495697H96.8774L103.917 12.7502L110.959 0.495697H114.905V22.1752Z" fill="#B22A2E"/>
<path d="M130.368 0C133.558 0 136.225 1.08776 138.363 3.26328C140.501 5.4388 141.552 8.14099 141.552 11.3354C141.552 14.5299 140.501 17.232 138.363 19.4076C136.225 21.5831 133.558 22.6708 130.368 22.6708C127.178 22.6708 124.546 21.5831 122.408 19.4076C120.27 17.232 119.184 14.5299 119.184 11.3354C119.184 8.14099 120.27 5.4388 122.408 3.26328C124.546 1.08776 127.178 0 130.368 0ZM125.006 5.66599C123.525 7.18059 122.803 9.06007 122.803 11.332C122.803 13.6039 123.528 15.4834 125.006 16.998C126.453 18.5126 128.23 19.2733 130.368 19.2733C132.506 19.2733 134.249 18.516 135.73 16.998C137.211 15.4834 137.933 13.6039 137.933 11.332C137.933 9.06007 137.208 7.18059 135.73 5.66599C134.249 4.15139 132.472 3.39409 130.368 3.39409C128.265 3.39409 126.453 4.15139 125.006 5.66599Z" fill="#B22A2E"/>
<path d="M145.501 14.5953V0.495697H149.055V13.9068C149.055 17.3663 151.193 19.2458 153.86 19.2458C156.528 19.2458 158.662 17.4351 158.662 13.9068V0.495697H162.216V14.5987C162.216 17.1701 161.394 19.146 159.748 20.5642C158.071 21.9824 156.129 22.6743 153.86 22.6743C149.681 22.8051 145.536 19.9067 145.505 14.6021" fill="#B22A2E"/>
<path d="M176.755 22.1752H173.366L165.172 0.495697H168.956L175.108 16.9704L181.196 0.495697H185.141L176.755 22.1752Z" fill="#B22A2E"/>
<path d="M191.985 3.75553V9.721H199.323V12.9808H191.985V18.9119H201.426V22.1752H188.431V0.495697H201.165V3.75553H191.985Z" fill="#B22A2E"/>
<path d="M228.008 22.1752H224.454V7.14962L218.632 17.2975H215.408L209.586 7.14962V22.1752H206.032V0.495697H209.981L217.02 12.7502L224.059 0.495697H228.008V22.1752Z" fill="#B22A2E"/>
<path d="M236.824 3.75553V9.721H244.163V12.9808H236.824V18.9119H246.266V22.1752H233.271V0.495697H246.005V3.75553H236.824Z" fill="#B22A2E"/>
<path d="M250.872 0.495697H254.426L265.28 15.8173V0.495697H268.834V22.1752H265.28L254.426 6.98439V22.1752H250.872V0.495697Z" fill="#B22A2E"/>
<path d="M282.751 22.1752H279.197V3.75553H272.123V0.495697H289.824V3.75553H282.751V22.1752Z" fill="#B22A2E"/>
<path d="M98.3345 54.6978H108.955V60.0712H92.7012V33.3832H98.3345V54.6978Z" fill="#B22A2E"/>
<path d="M130.657 60.0712L128.601 54.5429H118.438L116.42 60.0712H110.406L120.837 33.3798H126.206L136.675 60.0712H130.66H130.657ZM120.376 49.3175H126.659L123.539 40.8529L120.38 49.3175H120.376Z" fill="#B22A2E"/>
<path d="M155.4 33.3832H161.494L151.328 60.0712H145.921L135.795 33.3832H141.848L148.664 52.178L155.4 33.3832Z" fill="#B22A2E"/>
<path d="M180.907 60.0712L178.852 54.5429H168.688L166.671 60.0712H160.656L171.087 33.3798H176.456L186.925 60.0712H180.91H180.907ZM170.627 49.3175H176.91L173.789 40.8529L170.63 49.3175H170.627Z" fill="#B22A2E"/>
<path d="M195.868 54.6978H206.489V60.0712H190.235V33.3832H195.868V54.6978Z" fill="#B22A2E"/>
<path d="M215.855 54.6978H226.476V60.0712H210.222V33.3832H215.855V54.6978Z" fill="#B22A2E"/>
<path d="M256.017 46.7255C256.017 54.6943 250.191 60.6805 242.348 60.6805C234.505 60.6805 228.682 54.6943 228.682 46.7255C228.682 38.7566 234.508 32.7705 242.348 32.7705C250.188 32.7705 256.017 38.7566 256.017 46.7255ZM250.346 46.7255C250.346 41.7307 246.995 38.1473 242.351 38.1473C237.708 38.1473 234.357 41.7307 234.357 46.7255C234.357 51.7202 237.708 55.3036 242.351 55.3036C246.995 55.3036 250.346 51.7202 250.346 46.7255Z" fill="#B22A2E"/>
<path d="M266.143 33.3832H260.509V60.0746H266.143V33.3832Z" fill="#B22A2E"/>
<path d="M285.521 40.7428C284.304 39.0664 282.056 38.1886 280.114 38.1886C278.172 38.1886 276.536 39.0664 276.536 40.8185C276.536 42.9527 278.898 43.6033 281.335 44.2505C286.549 45.6239 289.824 47.1867 289.824 52.03C289.824 57.8268 285.332 60.6839 280.269 60.6839C276.691 60.6839 272.807 59.1968 270.257 55.9164L274.065 51.913C275.626 54.1264 278.289 55.1935 280.537 55.1935C282.63 55.1935 284.153 54.2778 284.153 52.6393C284.153 50.7701 281.867 50.123 279.472 49.438C274.103 47.9509 270.869 46.2367 270.869 41.5448C270.869 35.903 275.247 32.7739 280.31 32.7739C283.545 32.7739 286.896 34.1095 289.181 36.8909L285.528 40.7428H285.521Z" fill="#B22A2E"/>
<path d="M99.8227 79.434H94.9902V81.8711H99.0872V84.3805H94.9902V86.8728H99.9499V89.3822H92.6221V76.9246H99.8193V79.434H99.8227ZM94.3372 73.5787L98.991 71.9057L99.5684 74.095L94.8974 75.5545L94.3372 73.5787Z" fill="#007468"/>
<path d="M112.574 90.6317L111.358 93C109.839 92.3942 108.608 91.0792 108.031 89.5818C107.694 89.6541 107.326 89.6885 106.958 89.6885C103.662 89.6885 101.198 86.8762 101.198 83.1585C101.198 79.4409 103.662 76.6079 106.958 76.6079C110.254 76.6079 112.733 79.4202 112.733 83.1585C112.733 85.544 111.726 87.5543 110.124 88.6937C110.523 89.5302 111.275 90.1188 112.571 90.6352M106.955 87.1653C108.921 87.1653 110.33 85.4924 110.33 83.162C110.33 80.8316 108.921 79.138 106.955 79.138C104.989 79.138 103.597 80.8281 103.597 83.162C103.597 85.4958 105.006 87.1653 106.955 87.1653Z" fill="#007468"/>
<path d="M121.119 76.928H123.487V84.9003C123.487 87.7126 122.033 89.6506 119.009 89.6506C115.984 89.6506 114.53 87.7092 114.53 84.9003V76.928H116.898V84.7075C116.898 86.2566 117.699 87.1447 119.009 87.1447C120.318 87.1447 121.119 86.2566 121.119 84.7075V76.928Z" fill="#007468"/>
<path d="M128.062 76.928H125.694V89.3856H128.062V76.928Z" fill="#007468"/>
<path d="M130.43 76.928H134.589C136.971 76.928 138.091 78.8143 138.091 80.773C138.091 82.8556 136.764 84.8659 134.379 84.8659H132.795V89.3856H130.427V76.928H130.43ZM132.798 79.3479V82.4632H134.255C135.232 82.4632 135.726 81.7162 135.726 80.8246C135.726 80.0054 135.262 79.3479 134.334 79.3479H132.798Z" fill="#007468"/>
<path d="M147.017 79.434H142.188V81.8745H146.282V84.384H142.188V86.8762H147.148V89.3856H139.82V76.928H147.017V79.434Z" fill="#007468"/>
<path d="M158.394 80.3599C157.882 79.5785 156.937 79.1689 156.122 79.1689C155.308 79.1689 154.617 79.5785 154.617 80.3978C154.617 81.3961 155.61 81.6956 156.631 81.9985C158.824 82.6387 160.199 83.3685 160.199 85.6301C160.199 88.3357 158.312 89.6713 156.184 89.6713C154.679 89.6713 153.049 88.976 151.977 87.4476L153.575 85.5784C154.232 86.6111 155.352 87.1102 156.294 87.1102C157.174 87.1102 157.813 86.6834 157.813 85.9192C157.813 85.0483 156.854 84.7454 155.847 84.4253C153.592 83.7299 152.231 82.9313 152.231 80.742C152.231 78.1087 154.07 76.6492 156.198 76.6492C157.559 76.6492 158.965 77.2722 159.924 78.57L158.387 80.3668L158.394 80.3599Z" fill="#007468"/>
<path d="M166.619 79.434V89.3856H164.251V79.434H160.81V76.928H170.056V79.434H166.619Z" fill="#007468"/>
<path d="M178.666 79.434H173.833V81.8711H177.93V84.3805H173.833V86.8728H178.793V89.3822H171.465V76.9246H178.663V79.434H178.666ZM173.18 73.5787L177.834 71.9057L178.412 74.095L173.741 75.5545L173.18 73.5787Z" fill="#007468"/>
<path d="M180.842 76.928H185C187.382 76.928 188.503 78.8143 188.503 80.773C188.503 82.8556 187.176 84.8659 184.791 84.8659H183.206V89.3856H180.838V76.928H180.842ZM183.21 79.3479V82.4632H184.667C185.643 82.4632 186.138 81.7162 186.138 80.8246C186.138 80.0054 185.674 79.3479 184.746 79.3479H183.21Z" fill="#007468"/>
<path d="M190.232 89.3856V76.928H192.6V81.8745H197.144V76.928H199.512V89.3856H197.144V84.384H192.6V89.3856H190.232Z" fill="#007468"/>
<path d="M209.431 89.3856L208.568 86.8039H204.296L203.447 89.3856H200.921L205.303 76.928H207.558L211.957 89.3856H209.431ZM205.111 84.3667H207.75L206.437 80.415L205.111 84.3667Z" fill="#007468"/>
<path d="M220.773 76.928H223.142V89.3856H220.629L215.718 81.4821V89.3856H213.349V76.928H215.862L220.773 85.1481V76.928Z" fill="#007468"/>
<path d="M232.707 79.434H227.878V81.8745H231.971V84.384H227.878V86.8762H232.838V89.3856H225.51V76.928H232.707V79.434Z" fill="#007468"/>
<path d="M238.629 76.928H243.09C245.139 76.928 246.242 78.4391 246.242 79.971C246.242 81.1103 245.668 82.267 244.403 82.6594C245.97 83.1034 246.675 84.2979 246.675 85.6679C246.675 87.5887 245.266 89.3856 242.884 89.3856H238.629V76.928ZM240.966 79.3479V81.9468H242.502C243.382 81.9468 243.877 81.3582 243.877 80.5768C243.877 79.7954 243.382 79.3479 242.551 79.3479H240.966ZM240.966 83.9399V86.9657H242.743C243.702 86.9657 244.328 86.3977 244.328 85.4338C244.328 84.5251 243.736 83.9399 242.777 83.9399H240.97H240.966Z" fill="#007468"/>
<path d="M259.568 83.1551C259.568 86.8762 257.121 89.6678 253.824 89.6678C250.528 89.6678 248.081 86.8727 248.081 83.1551C248.081 79.4374 250.528 76.6423 253.824 76.6423C257.121 76.6423 259.568 79.4374 259.568 83.1551ZM257.186 83.1551C257.186 80.8246 255.777 79.1517 253.828 79.1517C251.879 79.1517 250.47 80.8246 250.47 83.1551C250.47 85.4855 251.879 87.1584 253.828 87.1584C255.777 87.1584 257.186 85.4855 257.186 83.1551Z" fill="#007468"/>
<path d="M270.48 76.928L266.273 84.081V89.3856H263.905V84.081L259.698 76.928H262.561L265.091 81.6955L267.617 76.928H270.48Z" fill="#007468"/>
<path d="M278.912 79.434H274.083V81.8745H278.176V84.384H274.083V86.8762H279.039V89.3856H271.714V76.928H278.912V79.434Z" fill="#007468"/>
<path d="M281.087 76.928H285.456C287.968 76.928 289.089 78.7248 289.089 80.6491C289.089 82.0742 288.336 83.3547 286.961 83.9433L289.824 89.389H287.057L284.658 84.618H283.459V89.389H281.091V76.9314L281.087 76.928ZM283.455 79.3479V82.3014H285.184C286.129 82.3014 286.721 81.7127 286.721 80.7902C286.721 79.8677 286.177 79.3479 285.267 79.3479H283.459H283.455Z" fill="#007468"/>
<path d="M54.8969 58.5497L80.3278 0.495697H59.4201C45.7955 0.495697 35.9483 6.5782 28.1943 25.0116L0 89.3856H26.0152L29.2014 81.3789C35.7249 65.3964 43.888 59.3483 54.9004 58.5531" fill="#B22A2E"/>
<path d="M54.8969 58.5497C43.8845 59.3449 35.7214 65.3929 29.1979 81.3754L26.0117 89.3822H38.9935H47.4075C47.4075 89.3822 49.8856 89.3581 50.848 89.3099C52.4669 89.3099 57.1069 88.704 60.4065 87.0173C66.9885 83.9571 72.3538 77.6406 76.9182 66.46L80.1009 58.4533H57.54C56.6395 58.4533 55.7596 58.4877 54.8934 58.5497" fill="#007468"/>
</svg>
