<svg width="28" height="28" viewBox="0 0 28 28" fill="none" xmlns="http://www.w3.org/2000/svg">
<path d="M14 2.52109C17.7406 2.52109 18.1836 2.5375 19.6547 2.60312C21.0219 2.66328 21.7602 2.89297 22.2523 3.08438C22.9031 3.33594 23.3734 3.64219 23.8602 4.12891C24.3523 4.62109 24.6531 5.08594 24.9047 5.73672C25.0961 6.22891 25.3258 6.97266 25.3859 8.33438C25.4516 9.81094 25.468 10.2539 25.468 13.9891C25.468 17.7297 25.4516 18.1727 25.3859 19.6438C25.3258 21.0109 25.0961 21.7492 24.9047 22.2414C24.6531 22.8922 24.3469 23.3625 23.8602 23.8492C23.368 24.3414 22.9031 24.6422 22.2523 24.8938C21.7602 25.0852 21.0164 25.3148 19.6547 25.375C18.1781 25.4406 17.7352 25.457 14 25.457C10.2594 25.457 9.81641 25.4406 8.34531 25.375C6.97813 25.3148 6.23984 25.0852 5.74766 24.8938C5.09688 24.6422 4.62656 24.3359 4.13984 23.8492C3.64766 23.357 3.34688 22.8922 3.09531 22.2414C2.90391 21.7492 2.67422 21.0055 2.61406 19.6438C2.54844 18.1672 2.53203 17.7242 2.53203 13.9891C2.53203 10.2484 2.54844 9.80547 2.61406 8.33438C2.67422 6.96719 2.90391 6.22891 3.09531 5.73672C3.34688 5.08594 3.65313 4.61563 4.13984 4.12891C4.63203 3.63672 5.09688 3.33594 5.74766 3.08438C6.23984 2.89297 6.98359 2.66328 8.34531 2.60312C9.81641 2.5375 10.2594 2.52109 14 2.52109ZM14 0C10.1992 0 9.72344 0.0164062 8.23047 0.0820313C6.74297 0.147656 5.72031 0.388281 4.83438 0.732813C3.91016 1.09375 3.12813 1.56953 2.35156 2.35156C1.56953 3.12813 1.09375 3.91016 0.732813 4.82891C0.388281 5.72031 0.147656 6.7375 0.0820313 8.225C0.0164063 9.72344 0 10.1992 0 14C0 17.8008 0.0164063 18.2766 0.0820313 19.7695C0.147656 21.257 0.388281 22.2797 0.732813 23.1656C1.09375 24.0898 1.56953 24.8719 2.35156 25.6484C3.12813 26.425 3.91016 26.9063 4.82891 27.2617C5.72031 27.6063 6.7375 27.8469 8.225 27.9125C9.71797 27.9781 10.1938 27.9945 13.9945 27.9945C17.7953 27.9945 18.2711 27.9781 19.7641 27.9125C21.2516 27.8469 22.2742 27.6063 23.1602 27.2617C24.0789 26.9063 24.8609 26.425 25.6375 25.6484C26.4141 24.8719 26.8953 24.0898 27.2508 23.1711C27.5953 22.2797 27.8359 21.2625 27.9016 19.775C27.9672 18.282 27.9836 17.8063 27.9836 14.0055C27.9836 10.2047 27.9672 9.72891 27.9016 8.23594C27.8359 6.74844 27.5953 5.72578 27.2508 4.83984C26.9063 3.91016 26.4305 3.12813 25.6484 2.35156C24.8719 1.575 24.0898 1.09375 23.1711 0.738281C22.2797 0.39375 21.2625 0.153125 19.775 0.0875C18.2766 0.0164063 17.8008 0 14 0Z" fill="#D1D5DB"/>
<path d="M14 6.80859C10.0297 6.80859 6.80859 10.0297 6.80859 14C6.80859 17.9703 10.0297 21.1914 14 21.1914C17.9703 21.1914 21.1914 17.9703 21.1914 14C21.1914 10.0297 17.9703 6.80859 14 6.80859ZM14 18.6648C11.4242 18.6648 9.33516 16.5758 9.33516 14C9.33516 11.4242 11.4242 9.33516 14 9.33516C16.5758 9.33516 18.6648 11.4242 18.6648 14C18.6648 16.5758 16.5758 18.6648 14 18.6648Z" fill="#D1D5DB"/>
<path d="M23.1547 6.52412C23.1547 7.45381 22.4 8.20303 21.4758 8.20303C20.5461 8.20303 19.7969 7.44834 19.7969 6.52412C19.7969 5.59443 20.5516 4.84521 21.4758 4.84521C22.4 4.84521 23.1547 5.5999 23.1547 6.52412Z" fill="#D1D5DB"/>
</svg>
