<svg width="28" height="28" viewBox="0 0 28 28" fill="none" xmlns="http://www.w3.org/2000/svg">
<g clip-path="url(#clip0_23_38)">
<path d="M8.80852 25.3751C19.372 25.3751 25.1513 16.6213 25.1513 9.03229C25.1513 8.7862 25.1459 8.53464 25.1349 8.28854C26.2592 7.47549 27.2294 6.46842 28 5.31464C26.9529 5.78049 25.8412 6.08473 24.7029 6.21698C25.9015 5.49851 26.799 4.36984 27.2289 3.04018C26.1013 3.70844 24.8682 4.17984 23.5823 4.43417C22.716 3.51361 21.5705 2.90409 20.323 2.69985C19.0754 2.49561 17.7954 2.70801 16.6807 3.30423C15.566 3.90045 14.6788 4.84728 14.1562 5.99832C13.6335 7.14936 13.5047 8.44051 13.7895 9.67214C11.5062 9.55756 9.27259 8.96444 7.23331 7.93124C5.19403 6.89803 3.39464 5.4478 1.9518 3.67456C1.21847 4.93891 0.994066 6.43504 1.3242 7.85889C1.65434 9.28275 2.51424 10.5275 3.72914 11.3401C2.81707 11.3111 1.92497 11.0656 1.12656 10.6237V10.6948C1.12575 12.0216 1.58445 13.3078 2.42469 14.3347C3.26494 15.3616 4.43488 16.0658 5.73562 16.3276C4.89073 16.5588 4.00398 16.5925 3.14398 16.426C3.51103 17.5671 4.22517 18.5652 5.18673 19.2808C6.1483 19.9965 7.30931 20.3942 8.50773 20.4182C6.47316 22.0164 3.95987 22.8833 1.37266 22.8792C0.913835 22.8785 0.455466 22.8503 0 22.7949C2.62833 24.4812 5.68579 25.3767 8.80852 25.3751Z" fill="#D1D5DB"/>
</g>
<defs>
<clipPath id="clip0_23_38">
<rect width="28" height="28" fill="white"/>
</clipPath>
</defs>
</svg>
